HIERARCHY
ROOT Hips
{
    OFFSET   0.000000   0.000000   0.000000
    CHANNELS 6 Xposition Yposition Zposition Zrotation Xrotation Yrotation
    JOINT Chest
    {
        OFFSET   0.000000   8.007230   0.000000
        CHANNELS 3 Zrotation Xrotation Yrotation
        JOINT Chest2
        {
            OFFSET   0.000000  22.077100   0.000000
            CHANNELS 3 Zrotation Xrotation Yrotation
            JOINT Neck
            {
                OFFSET   0.000000  23.254700   0.000000
                CHANNELS 3 Zrotation Xrotation Yrotation
                JOINT Head
                {
                    OFFSET   0.000010  14.370000   1.956610
                    CHANNELS 3 Zrotation Xrotation Yrotation
                    End Site
                    {
                        OFFSET   0.000000  19.566000   0.000000
                    }
                }
            }
            JOINT LeftCollar
            {
                OFFSET   3.911900  19.017000  -0.467063
                CHANNELS 3 Zrotation Xrotation Yrotation
                JOINT LeftShoulder
                {
                    OFFSET  10.383700   0.000000   0.000000
                    CHANNELS 3 Zrotation Xrotation Yrotation
                    JOINT LeftElbow
                    {
                        OFFSET  26.662100   0.001671   0.000522
                        CHANNELS 3 Zrotation Xrotation Yrotation
                        JOINT LeftWrist
                        {
                            OFFSET  28.869000   0.000037  -0.000114
                            CHANNELS 3 Zrotation Xrotation Yrotation
                            JOINT LeftFinger0
                            {
                                OFFSET   2.044650  -2.323450   3.252850
                                CHANNELS 3 Zrotation Xrotation Yrotation
                                JOINT LeftFinger01
                                {
                                    OFFSET   3.088140   0.000000   0.000000
                                    CHANNELS 3 Zrotation Xrotation Yrotation
                                    JOINT LeftFinger02
                                    {
                                        OFFSET   2.639460   0.000000   0.000000
                                        CHANNELS 3 Zrotation Xrotation Yrotation
                                        End Site
                                        {
                                            OFFSET   2.582190   0.000000   0.000000
                                        }
                                    }
                                }
                            }
                            JOINT LeftFinger1
                            {
                                OFFSET   8.364480   0.000000   3.252850
                                CHANNELS 3 Zrotation Xrotation Yrotation
                                JOINT LeftFinger11
                                {
                                    OFFSET   4.646930   0.000000   0.000000
                                    CHANNELS 3 Zrotation Xrotation Yrotation
                                    JOINT LeftFinger12
                                    {
                                        OFFSET   2.323470   0.000000   0.000000
                                        CHANNELS 3 Zrotation Xrotation Yrotation
                                        End Site
                                        {
                                            OFFSET   2.273050   0.000000   0.000000
                                        }
                                    }
                                }
                            }
                            JOINT LeftFinger2
                            {
                                OFFSET   8.364490   0.000016   1.078090
                                CHANNELS 3 Zrotation Xrotation Yrotation
                                JOINT LeftFinger21
                                {
                                    OFFSET   5.111620   0.000000   0.000000
                                    CHANNELS 3 Zrotation Xrotation Yrotation
                                    JOINT LeftFinger22
                                    {
                                        OFFSET   2.788150   0.000013   0.000000
                                        CHANNELS 3 Zrotation Xrotation Yrotation
                                        End Site
                                        {
                                            OFFSET   2.727660   0.000000   0.000000
                                        }
                                    }
                                }
                            }
                            JOINT LeftFinger3
                            {
                                OFFSET   7.899780   0.000016  -1.078090
                                CHANNELS 3 Zrotation Xrotation Yrotation
                                JOINT LeftFinger31
                                {
                                    OFFSET   4.646930   0.000000   0.000000
                                    CHANNELS 3 Zrotation Xrotation Yrotation
                                    JOINT LeftFinger32
                                    {
                                        OFFSET   2.323470   0.000000   0.000000
                                        CHANNELS 3 Zrotation Xrotation Yrotation
                                        End Site
                                        {
                                            OFFSET   2.273050   0.000000   0.000000
                                        }
                                    }
                                }
                            }
                            JOINT LeftFinger4
                            {
                                OFFSET   7.435080   0.000000  -3.252850
                                CHANNELS 3 Zrotation Xrotation Yrotation
                                JOINT LeftFinger41
                                {
                                    OFFSET   3.717550   0.000000   0.000000
                                    CHANNELS 3 Zrotation Xrotation Yrotation
                                    JOINT LeftFinger42
                                    {
                                        OFFSET   1.858760   0.000000   0.000000
                                        CHANNELS 3 Zrotation Xrotation Yrotation
                                        End Site
                                        {
                                            OFFSET   1.818440   0.000000   0.000000
                                        }
                                    }
                                }
                            }
                        }
                    }
                }
            }
            JOINT RightCollar
            {
                OFFSET  -3.911900  19.017000  -0.467064
                CHANNELS 3 Zrotation Xrotation Yrotation
                JOINT RightShoulder
                {
                    OFFSET -10.383700   0.000000   0.000000
                    CHANNELS 3 Zrotation Xrotation Yrotation
                    JOINT RightElbow
                    {
                        OFFSET -26.662100   0.001633   0.000260
                        CHANNELS 3 Zrotation Xrotation Yrotation
                        JOINT RightWrist
                        {
                            OFFSET -28.869000  -0.000045  -0.000080
                            CHANNELS 3 Zrotation Xrotation Yrotation
                            JOINT RightFinger0
                            {
                                OFFSET  -2.044660  -2.323490   3.252850
                                CHANNELS 3 Zrotation Xrotation Yrotation
                                JOINT RightFinger01
                                {
                                    OFFSET  -3.088140   0.000000   0.000000
                                    CHANNELS 3 Zrotation Xrotation Yrotation
                                    JOINT RightFinger02
                                    {
                                        OFFSET  -2.639450   0.000000   0.000000
                                        CHANNELS 3 Zrotation Xrotation Yrotation
                                        End Site
                                        {
                                            OFFSET  -2.582190   0.000000   0.000000
                                        }
                                    }
                                }
                            }
                            JOINT RightFinger1
                            {
                                OFFSET  -8.364480   0.000000   3.252850
                                CHANNELS 3 Zrotation Xrotation Yrotation
                                JOINT RightFinger11
                                {
                                    OFFSET  -4.646920   0.000000   0.000000
                                    CHANNELS 3 Zrotation Xrotation Yrotation
                                    JOINT RightFinger12
                                    {
                                        OFFSET  -2.323470   0.000000   0.000000
                                        CHANNELS 3 Zrotation Xrotation Yrotation
                                        End Site
                                        {
                                            OFFSET  -2.273050   0.000000   0.000000
                                        }
                                    }
                                }
                            }
                            JOINT RightFinger2
                            {
                                OFFSET  -8.364480   0.000000   1.078090
                                CHANNELS 3 Zrotation Xrotation Yrotation
                                JOINT RightFinger21
                                {
                                    OFFSET  -5.111610   0.000000   0.000000
                                    CHANNELS 3 Zrotation Xrotation Yrotation
                                    JOINT RightFinger22
                                    {
                                        OFFSET  -2.788160   0.000000   0.000000
                                        CHANNELS 3 Zrotation Xrotation Yrotation
                                        End Site
                                        {
                                            OFFSET  -2.727660   0.000000   0.000000
                                        }
                                    }
                                }
                            }
                            JOINT RightFinger3
                            {
                                OFFSET  -7.899780   0.000000  -1.078090
                                CHANNELS 3 Zrotation Xrotation Yrotation
                                JOINT RightFinger31
                                {
                                    OFFSET  -4.646930   0.000000   0.000000
                                    CHANNELS 3 Zrotation Xrotation Yrotation
                                    JOINT RightFinger32
                                    {
                                        OFFSET  -2.323470   0.000000   0.000000
                                        CHANNELS 3 Zrotation Xrotation Yrotation
                                        End Site
                                        {
                                            OFFSET  -2.273050   0.000000   0.000000
                                        }
                                    }
                                }
                            }
                            JOINT RightFinger4
                            {
                                OFFSET  -7.435090   0.000000  -3.252850
                                CHANNELS 3 Zrotation Xrotation Yrotation
                                JOINT RightFinger41
                                {
                                    OFFSET  -3.717550   0.000000   0.000000
                                    CHANNELS 3 Zrotation Xrotation Yrotation
                                    JOINT RightFinger42
                                    {
                                        OFFSET  -1.858760   0.000000   0.000000
                                        CHANNELS 3 Zrotation Xrotation Yrotation
                                        End Site
                                        {
                                            OFFSET  -1.818440   0.000000   0.000000
                                        }
                                    }
                                }
                            }
                        }
                    }
                }
            }
        }
    }
    JOINT LeftHip
    {
        OFFSET   9.782990   0.000000   0.000000
        CHANNELS 3 Zrotation Xrotation Yrotation
        JOINT LeftKnee
        {
            OFFSET  -0.000063 -41.789100   0.001657
            CHANNELS 3 Zrotation Xrotation Yrotation
            JOINT LeftAnkle
            {
                OFFSET   0.000078 -41.133200  -0.000113
                CHANNELS 3 Zrotation Xrotation Yrotation
                JOINT LeftToe
                {
                    OFFSET   0.000000  -6.358970  14.674500
                    CHANNELS 3 Zrotation Xrotation Yrotation
                    End Site
                    {
                        OFFSET   0.000000   0.000000   3.913200
                    }
                }
            }
        }
    }
    JOINT RightHip
    {
        OFFSET  -9.782990   0.000000   0.000000
        CHANNELS 3 Zrotation Xrotation Yrotation
        JOINT RightKnee
        {
            OFFSET   0.000053 -41.789200   0.000277
            CHANNELS 3 Zrotation Xrotation Yrotation
            JOINT RightAnkle
            {
                OFFSET   0.000030 -41.133200  -0.000150
                CHANNELS 3 Zrotation Xrotation Yrotation
                JOINT RightToe
                {
                    OFFSET   0.000000  -6.358960  14.674500
                    CHANNELS 3 Zrotation Xrotation Yrotation
                    End Site
                    {
                        OFFSET   0.000000   0.000000   3.913200
                    }
                }
            }
        }
    }
}
MOTION
Frames: 4
Frame Time:   0.016667
  0.352230  89.547800   0.569115  -3.083380 -10.535300  -3.173360   1.410260   4.886200  -0.309141   2.861420   9.763220  -0.743439   3.247160   1.658250  -0.084184   5.345980   3.330040  -9.565740  -3.436070  -0.754998   3.221870 -78.563700  21.957800  -2.252100  -1.936140  -7.977140 -13.257800  10.719000  -3.281440   0.956190  35.790400  24.033000 -55.053100 -31.175900  -0.203141   0.108243 -10.588100  -0.202139   0.010215 -19.696100   3.530160  -9.759800 -16.361600  -0.007227   0.039958 -11.453100  -0.006564   0.027610 -21.389300   0.878395  -2.240180 -21.406400  -0.051362  -0.106684 -14.256500   0.055533  -0.074485 -21.620100   0.887060  -2.236780 -21.637400   0.035535   0.024847 -14.410500   0.005713   0.032414 -23.277000   0.951799  -2.210020 -34.942800   0.018089   0.039908 -23.271900  -0.018929   0.022152   5.783240   3.982650  11.156800  34.490600   8.092010  55.123900 -44.441600   2.648840  42.459100 -67.001400  14.864400  29.864600 -41.798800  51.442400  86.073900  50.814500  -0.041816  -0.160615  25.741600  -0.097267  -0.121398  -9.053730   0.465744  -3.304080   0.001408   0.000592   0.001770   0.000986   0.000066  -0.005203  85.776100  -3.582150  -0.127018  85.783900   0.074577   0.003115  64.337900   0.032002  -0.046653  75.123000  -4.657420  -1.246190  75.175800  -0.057126  -0.031605  56.381900  -0.043246   0.024251  77.456900  -9.736230  -2.295230 110.000000  -0.005983   0.001478  77.594500  -0.007407   0.109382   1.854710  13.306400   3.058100   0.745343   0.129281   6.658430  -0.640049  -3.919900   2.262330  -0.000000   0.000000   0.000000   2.966380  11.954500   0.032810  -0.556918   1.751230  -5.362040  -0.717789  -4.434730  -1.051740   0.000000   0.000000  -0.000000
  0.343660  89.547600   0.539715  -3.092170 -10.532500  -3.168670   1.406470   4.912000  -0.242881   2.849710   9.816540  -0.610595   3.243670   1.650980  -0.084505   5.340980   3.315910  -9.648030  -3.444790  -0.859835   3.116360 -78.515500  22.019000  -2.284540  -1.904010  -7.951670 -13.364000  10.722000  -3.332840   0.944867  35.808300  24.048900 -55.005700 -31.151900  -0.199597   0.095338 -10.576100  -0.199153   0.007166 -19.695400   3.526790  -9.751000 -16.360600   0.002344   0.009234 -11.452400   0.001744   0.006590 -21.406100   0.880353  -2.244650 -21.423300  -0.055049  -0.102391 -14.267800   0.042158  -0.076508 -21.622600   0.888886  -2.241300 -21.640000   0.048460   0.032114 -14.412200   0.006736   0.043405 -23.295200   0.953910  -2.214410 -34.970300   0.032565   0.058514 -23.290200  -0.026689   0.035750   5.854470   3.814440  11.037300  36.154100   7.853620  55.130400 -43.596800   1.927350  42.503000 -65.202300  15.960800  23.240100 -39.451500  49.941700  82.995500  52.539400   0.021130  -0.027713  27.948000   0.035909   0.027592  -8.304250   1.002500  -6.918830   0.001439   0.000713   0.001767   0.001005   0.000131  -0.005339  85.052700  -6.616500  -0.494263  85.088100   0.068157   0.003519  63.816100   0.029558  -0.042411  75.905700  -6.040230  -1.501130  75.978800  -0.057155  -0.028284  56.984200  -0.041049   0.024506  79.200800  -9.806720  -1.973610 110.000000  -0.005966   0.001434  78.893700  -0.001997   0.075804   1.871010  13.305900   3.061670   0.747582   0.103005   6.658660  -0.646308  -3.895610   2.251310   0.000000   0.000000   0.000000   2.978540  11.934400   0.035295  -0.550192   1.758090  -5.367350  -0.724939  -4.423590  -1.051710   0.000000   0.000000   0.000000
  0.335532  89.547400   0.514661  -3.097350 -10.526400  -3.144040   1.405730   4.940540  -0.170006   2.842420   9.875420  -0.464763   3.238400   1.634340  -0.084824   5.332650   3.282610  -9.757650  -3.458910  -0.980407   2.991310 -78.471000  22.078300  -2.316210  -1.871980  -7.925550 -13.475100  10.735000  -3.395110   0.962486  35.823700  24.111200 -54.958800 -31.163000  -0.078431   0.061018 -10.581600  -0.069085  -0.025920 -19.700400   3.532930  -9.763130 -16.365400   0.002123   0.045995 -11.455800   0.001931   0.032287 -21.420500   0.865788  -2.208980 -21.437200   0.052555   0.040945 -14.277100  -0.007459   0.049334 -21.632300   0.874884  -2.205730 -21.649200   0.009777   0.004502 -14.418300   0.007044   0.007832 -23.313200   0.938971  -2.179160 -34.996500   0.010264   0.015346 -23.307700  -0.006334   0.010624   5.932720   3.617260  10.884100  38.011600   7.698520  55.095700 -42.950600   0.759113  42.660200 -62.302300  16.814100  16.726800 -39.943900  50.013300  83.560500  51.631200   0.037904  -0.037708  26.871400   0.054551   0.025050  -8.427990   1.280030  -8.399960   0.001457   0.000832   0.001773   0.001021   0.000169  -0.005475  84.043600  -8.144130  -0.835334  84.110000   0.044088   0.003845  63.082500   0.019864  -0.026939  76.662400  -7.585130  -1.779530  76.774200  -0.038705  -0.016222  57.580700  -0.025467   0.017015  80.996100  -9.865650  -1.634370 110.000000  -0.005960   0.001376  79.749200  -0.001559   0.024977   1.889950  13.304000   3.066520   0.749378   0.076359   6.648660  -0.653836  -3.873030   2.229520   0.000000   0.000000   0.000000   2.992570  11.914100   0.026077  -0.544943   1.765650  -5.361680  -0.732951  -4.417190  -1.070860  -0.000000   0.000000  -0.000000
  0.327888  89.547400   0.494655  -3.095960 -10.517200  -3.094350   1.406550   4.967410  -0.104798   2.838350   9.930730  -0.334399   3.226980   1.614410  -0.085126   5.313040   3.242870  -9.834200  -3.476210  -1.098980   2.870090 -78.436800  22.115600  -2.341420  -1.840390  -7.891840 -13.587800  10.754200  -3.470420   0.980121  35.864900  24.182500 -54.942500 -31.179100   0.039696   0.024140 -10.589500   0.058424  -0.056394 -19.712300   3.539080  -9.775260 -16.376000   0.001740   0.082755 -11.463200   0.001991   0.057983 -21.444200   0.848956  -2.160300 -21.460700   0.160157   0.180601 -14.292400  -0.045610   0.175176 -21.646400   0.856594  -2.157320 -21.662500  -0.028907  -0.023111 -14.427200   0.007088  -0.027742 -23.333500   0.919767  -2.131150 -35.025800  -0.012037  -0.027823 -23.327200   0.014021  -0.014503   6.005460   3.439780  10.725100  39.879000   7.620170  55.076200 -42.588800  -0.656867  42.790800 -58.871400  17.438600  11.045000 -41.152300  50.244700  85.022000  49.837600   0.040301  -0.047702  24.818300   0.057214   0.018702  -8.947290   1.353000  -8.618490   0.001470   0.000948   0.001779   0.001035   0.000195  -0.005608  83.030600  -8.662450  -1.034140  83.111000   0.017377   0.003998  62.333200   0.008750  -0.010076  77.384600  -8.544270  -1.952420  77.529900  -0.013674  -0.005450  58.147500  -0.008822   0.006649  82.711000  -9.915640  -1.305700 110.000000  -0.005954   0.001317  80.151400  -0.001418  -0.008969   1.908590  13.294000   3.071260   0.750376   0.060299   6.625950  -0.662904  -3.859860   2.198860  -0.000000   0.000000   0.000000   3.006280  11.894900   0.006890  -0.539639   1.770340  -5.353200  -0.742626  -4.414290  -1.111280  -0.000000   0.000000   0.000000
